<?xml version="1.0" encoding="UTF-8" standalone="no"?>
<!-- Created with Inkscape (http://www.inkscape.org/) -->

<svg
   width="210mm"
   height="210mm"
   viewBox="0 0 210 210"
   version="1.1"
   id="svg5"
   inkscape:export-filename="Fastfoodicon.svg"
   inkscape:export-xdpi="96"
   inkscape:export-ydpi="96"
   inkscape:version="1.2.2 (b0a8486541, 2022-12-01)"
   sodipodi:docname="Iloilo.svg"
   xml:space="preserve"
   xmlns:inkscape="http://www.inkscape.org/namespaces/inkscape"
   xmlns:sodipodi="http://sodipodi.sourceforge.net/DTD/sodipodi-0.dtd"
   xmlns="http://www.w3.org/2000/svg"
   xmlns:svg="http://www.w3.org/2000/svg"><sodipodi:namedview
     id="namedview7"
     pagecolor="#ffffff"
     bordercolor="#000000"
     borderopacity="0.25"
     inkscape:showpageshadow="2"
     inkscape:pageopacity="0.0"
     inkscape:pagecheckerboard="0"
     inkscape:deskcolor="#d1d1d1"
     inkscape:document-units="mm"
     showgrid="false"
     inkscape:zoom="0.49449363"
     inkscape:cx="112.23603"
     inkscape:cy="352.88624"
     inkscape:window-width="1712"
     inkscape:window-height="931"
     inkscape:window-x="1920"
     inkscape:window-y="0"
     inkscape:window-maximized="1"
     inkscape:current-layer="layer1" /><defs
     id="defs2"><inkscape:path-effect
       effect="bend_path"
       id="path-effect2774"
       is_visible="true"
       lpeversion="1"
       bendpath="m 35.94017,129.56781 c 32.045948,16.01107 66.07013,26.88426 114.63204,0"
       prop_scale="1"
       scale_y_rel="false"
       vertical="false"
       hide_knot="false"
       bendpath-nodetypes="cc" /><inkscape:path-effect
       effect="bend_path"
       id="path-effect2766"
       is_visible="true"
       lpeversion="1"
       bendpath="m 72.076223,146.39269 c 6.779604,2.82886 13.962557,4.2998 22.859616,0"
       prop_scale="1"
       scale_y_rel="false"
       vertical="false"
       hide_knot="false"
       bendpath-nodetypes="cc" /><inkscape:path-effect
       effect="bend_path"
       id="path-effect2760"
       is_visible="true"
       lpeversion="1"
       bendpath="m 72.076223,146.39269 c 6.779604,2.82886 13.962557,4.2998 22.859616,0"
       prop_scale="1"
       scale_y_rel="false"
       vertical="false"
       hide_knot="false"
       bendpath-nodetypes="cc" /><inkscape:path-effect
       effect="bend_path"
       id="path-effect2754"
       is_visible="true"
       lpeversion="1"
       bendpath="m 72.076223,146.39269 c 6.779604,2.82886 13.962557,4.2998 22.859616,0"
       prop_scale="1"
       scale_y_rel="false"
       vertical="false"
       hide_knot="false"
       bendpath-nodetypes="cc" /><inkscape:path-effect
       effect="bend_path"
       id="path-effect1754"
       is_visible="true"
       lpeversion="1"
       bendpath="m 35.94017,129.56781 c 32.045948,16.01107 66.07013,26.88426 114.63204,0"
       prop_scale="1"
       scale_y_rel="false"
       vertical="false"
       hide_knot="false"
       bendpath-nodetypes="cc" /><inkscape:path-effect
       effect="mirror_symmetry"
       start_point="140.03095,92.465004"
       end_point="140.03095,161.68626"
       center_point="140.03095,127.07563"
       id="path-effect267"
       is_visible="true"
       lpeversion="1.2"
       lpesatellites=""
       mode="free"
       discard_orig_path="false"
       fuse_paths="false"
       oposite_fuse="false"
       split_items="false"
       split_open="false"
       link_styles="false" /><inkscape:path-effect
       effect="bend_path"
       id="path-effect481"
       is_visible="true"
       lpeversion="1"
       bendpath="m 66.960918,147.31396 c 4.296642,-20.46413 33.162432,-21.40281 45.890182,0"
       prop_scale="1.8738438"
       scale_y_rel="false"
       vertical="false"
       hide_knot="false"
       bendpath-nodetypes="cc" /><inkscape:path-effect
       effect="bend_path"
       id="path-effect477"
       is_visible="true"
       lpeversion="1"
       bendpath="m 44.805607,223.87058 c 19.909627,20.10851 41.021148,30.63386 67.246943,0"
       prop_scale="1"
       scale_y_rel="false"
       vertical="false"
       hide_knot="false"
       bendpath-nodetypes="cc" /></defs><g
     inkscape:label="Fries holder"
     inkscape:groupmode="layer"
     id="layer1"
     transform="translate(10.439374,4.8529007)"><circle
       style="fill:#f4e3d7;fill-opacity:0.501103;stroke:none;stroke-width:0.364887"
       id="path349"
       cx="94.560623"
       cy="100.1471"
       r="81.823486" /><path
       id="path324"
       style="fill:#fba02a;fill-opacity:1;stroke:#fba02a;stroke-width:2.10047;stroke-dasharray:none;stroke-opacity:1"
       d="m 136.14783,53.966147 c -0.2522,-0.01788 -0.51235,0.03825 -0.70518,0.17331 -0.13645,0.09557 -0.44117,0.557532 -0.67695,1.026469 -0.23578,0.468938 -0.49497,0.903621 -0.57601,0.966047 -0.0811,0.06243 -0.49474,0.202964 -0.91938,0.312608 -0.42464,0.109643 -0.86308,0.245924 -0.97437,0.30284 -0.3263,0.166861 -0.49066,0.721478 -0.79744,2.694075 -0.64991,4.178942 -1.57893,6.695183 -3.29323,8.91766 -0.28076,0.363973 -1.18657,1.340054 -2.01278,2.169082 l -1.50226,1.507322 -1.41687,0.516311 c -1.98069,0.721509 -1.96347,0.697029 -2.19948,3.100032 l -0.13133,1.336907 -0.95013,0.182716 c -1.25143,0.240781 -2.19612,0.712033 -2.97449,1.483805 -1.13958,1.129922 -1.81656,2.884111 -1.95452,5.064327 l -0.0764,1.208101 -0.89549,0.06513 c -0.91013,0.06605 -1.75087,0.302063 -2.57793,0.723992 -0.25247,0.128806 -0.47884,0.234457 -0.50292,0.234457 -0.0241,0 -0.39388,-0.460281 -0.82204,-1.02249 -0.42817,-0.562212 -0.88337,-1.116589 -1.01128,-1.232343 -0.27634,-0.250081 -0.85953,-0.254598 -2.41294,-0.01809 -0.97622,0.148631 -1.10208,0.201209 -2.51787,1.049265 -0.8197,0.490992 -1.53212,0.892597 -1.58295,0.892597 -0.0508,0 -0.48113,-0.230403 -0.95628,-0.511968 -0.99975,-0.592447 -1.956504,-1.015086 -3.124993,-1.380325 -1.183235,-0.369848 -3.603865,-0.368996 -5.339668,0.0018 -0.662015,0.141419 -1.31435,0.307501 -1.449432,0.369052 -0.145588,0.06633 -0.498123,0.575528 -0.865824,1.250071 -0.850889,1.560957 -1.388902,2.215361 -2.089121,2.54139 -0.856567,0.398823 -1.38453,0.353647 -3.023328,-0.257251 -1.38003,-0.514461 -1.428336,-0.523814 -2.673814,-0.521014 -1.180305,0.0027 -1.352705,0.03237 -2.481691,0.424048 -0.989057,0.343123 -1.366283,0.420724 -2.040637,0.420068 -1.095455,-0.0011 -1.738676,-0.252181 -3.455697,-1.348486 -0.762371,-0.486765 -1.49432,-0.87704 -1.645174,-0.87704 -0.172401,0 -1.517549,0.849784 -3.679299,2.324301 -1.87408,1.278296 -3.498011,2.412374 -3.608744,2.520405 -0.314566,0.306891 -0.361857,0.997761 -0.0919,1.340163 0.123154,0.156202 0.85982,0.649086 1.637213,1.095577 3.745012,2.150926 5.052581,3.297111 5.921468,5.190238 0.206936,0.450881 0.437939,1.100092 0.513416,1.442558 0.201305,0.913766 0.08915,2.727376 -0.224326,3.623576 -0.897207,2.56513 -3.253718,5.8873 -7.90928,11.15114 -1.386091,1.56719 -1.431975,1.63614 -1.956335,2.92022 -1.713114,4.19512 -2.912608,6.02059 -5.756479,8.7599 -1.352669,1.30294 -1.484738,1.39965 -2.398474,1.75987 -0.624705,0.24629 -1.036959,0.48046 -1.165406,0.66176 -0.258766,0.36526 -2.2115,4.2617 -2.600366,5.18879 -1.274089,3.03761 -1.724005,5.42266 -1.698722,9.0045 0.0087,1.23424 0.05636,2.42265 0.10565,2.64125 0.103551,0.45912 0.472204,0.89606 0.810828,0.96062 h 3.61e-4 c 0.481738,0.0917 1.105188,-0.20093 1.223659,-0.5742 0.04204,-0.13248 0.687545,-0.56384 1.666883,-1.1144 0.87899,-0.49414 1.726702,-1.00913 1.883971,-1.14441 0.20115,-0.17302 0.539408,-0.89843 1.140804,-2.44551 l 0.854969,-2.19912 2.632929,-1.24898 c 1.51797,-0.72002 2.866004,-1.43549 3.183974,-1.69004 2.170311,-1.73742 3.053305,-2.25849 5.107745,-3.01356 1.147678,-0.42181 1.580964,-0.51341 3.936187,-0.83326 2.418236,-0.32837 2.732035,-0.34905 3.6395,-0.23772 3.859121,0.47346 5.948041,0.0557 8.999067,-1.79966 l 1.03841,-0.63137 1.213166,0.1469 c 2.520982,0.30512 4.520689,0.12544 6.857122,-0.61618 1.900538,-0.60324 1.938476,-0.67966 1.643003,-3.30988 l -0.148345,-1.32209 1.565215,-2.04208 c 2.029245,-2.6474 1.96941,-2.55433 2.319235,-3.61381 0.16524,-0.50045 0.34279,-0.90997 0.39474,-0.90997 0.0519,0 0.84528,0.17375 1.76276,0.38606 2.56113,0.59268 2.70305,0.56212 3.54977,-0.76271 0.31347,-0.49047 1.55949,-2.426 2.76861,-4.30125 1.20913,-1.87526 2.24526,-3.54501 2.30295,-3.71042 0.14257,-0.40899 -0.12649,-1.03414 -0.53367,-1.23994 -0.1716,-0.0867 -0.79527,-0.31761 -1.38612,-0.51269 -0.59084,-0.19507 -1.09543,-0.38885 -1.12126,-0.43056 -0.14954,-0.24197 2.89804,-2.4079 4.64535,-3.30157 2.30066,-1.17668 3.46637,-1.64736 4.2781,-1.72694 3.43457,-0.33674 5.86728,-0.64718 6.12915,-0.78261 0.34067,-0.17616 0.34351,-0.18253 0.81625,-1.804363 l 0.33396,-1.146592 1.43387,-0.543085 c 2.03619,-0.771507 1.96667,-0.672909 2.05475,-2.92817 0.10611,-2.717606 0.39511,-3.721116 1.37164,-4.765106 1.14415,-1.223163 2.56107,-1.526871 5.39177,-1.155638 1.0369,0.136001 1.37463,0.144277 1.62599,0.04016 0.41851,-0.17336 0.75077,-0.609536 0.75077,-0.985223 0,-0.166322 -0.3859,-1.231623 -0.85786,-2.367357 l -0.85822,-2.06488 0.25399,-2.428864 0.25435,-2.428866 -0.28547,-1.047817 -0.28547,-1.048178 0.76415,-0.730867 c 0.67771,-0.648151 0.88522,-0.957958 1.82717,-2.728087 0.73573,-1.38261 1.06376,-2.111913 1.06446,-2.371336 0.001,-0.206056 -0.32914,-1.456836 -0.73376,-2.779465 l -0.73557,-2.404624 0.51595,-3.992268 c 0.28377,-2.195782 0.51515,-4.171596 0.51305,-4.390628 -0.004,-0.47936 -0.98317,-2.632323 -1.37707,-3.026222 -0.16009,-0.160087 -0.40413,-0.252031 -0.65633,-0.269914 z m -0.1943,3.704988 c 0.0125,0.0078 0.0188,0.02486 0.0188,0.05138 -1.3e-4,0.08718 -0.22293,1.846174 -0.49497,3.908689 -0.27205,2.062517 -0.49535,3.888815 -0.49605,4.058481 -7e-4,0.169666 0.32487,1.365956 0.72363,2.658619 l 0.72472,2.350351 -0.89694,1.663626 c -0.83121,1.541216 -0.95974,1.717914 -1.7454,2.401006 -1.24597,1.083309 -1.24661,1.084984 -0.81082,2.840973 l 0.36072,1.453411 -0.22649,2.027251 c -0.3081,2.756277 -0.3018,2.90689 0.16824,4.001676 0.21717,0.505838 0.45882,1.070903 0.53657,1.255499 l 0.14111,0.335403 -1.39082,-0.0033 c -1.57382,-0.0036 -2.24037,0.127344 -3.37646,0.663569 -1.37558,0.649255 -2.59991,1.988049 -3.14634,3.4405 -0.36954,0.982258 -0.65075,2.82683 -0.65706,4.305601 -0.002,0.53532 0.16528,0.425631 -1.80546,1.180965 -1.27418,0.488364 -1.34017,0.566753 -1.72006,2.040276 -0.20378,0.790426 -0.31087,1.02842 -0.49171,1.094129 -0.12714,0.04616 -1.51379,0.219926 -3.08158,0.386057 l -2.85038,0.302113 -1.23053,0.55358 c -3.91433,1.76139 -6.08347,3.1783 -8.8681,5.7923 -0.60803,0.57077 -0.68962,0.69597 -0.68962,1.06084 0,0.81221 0.24477,0.98601 2.39341,1.70306 l 1.23487,0.41211 -2.14302,3.31748 -2.14304,3.31712 -1.84923,-0.42006 c -3.043466,-0.69153 -3.089844,-0.67437 -3.780246,1.39733 l -0.458784,1.37743 -1.852494,2.4209 c -1.018865,1.33145 -1.881842,2.53764 -1.91762,2.68033 -0.03583,0.14268 0.0033,0.87736 0.0872,1.63251 0.08386,0.75515 0.119483,1.40554 0.07924,1.44545 -0.04027,0.0399 -0.618963,0.2124 -1.286253,0.38353 -1.050808,0.26943 -1.420002,0.31145 -2.757393,0.30935 -0.942795,-0.001 -1.980255,-0.0754 -2.664046,-0.19104 -0.615953,-0.10416 -1.211527,-0.15578 -1.32352,-0.11434 -0.111983,0.0414 -0.631608,0.33866 -1.154552,0.66031 -1.263831,0.77738 -2.865672,1.53771 -3.68147,1.74721 -1.115569,0.2865 -2.391815,0.32202 -4.192352,0.11651 l -1.653496,-0.18887 -2.812389,0.38787 c -3.157389,0.43547 -4.164002,0.71705 -6.341897,1.77434 -1.206398,0.58565 -1.987652,1.10081 -3.371032,2.22263 -0.548171,0.44452 -1.365107,0.8851 -3.364158,1.81486 -1.45203,0.67534 -2.789999,1.34127 -2.973397,1.47983 -0.274282,0.20723 -0.48653,0.65116 -1.196523,2.50014 l -0.863292,2.2476 -0.882105,0.49568 c -0.485233,0.27245 -0.926937,0.51164 -0.981605,0.53187 -0.202153,0.0747 -0.155774,-2.25075 0.07453,-3.73176 0.369572,-2.37661 0.933542,-3.97441 2.530173,-7.16973 l 1.019957,-2.041 0.876678,-0.35856 c 0.796595,-0.3257 1.014747,-0.49034 2.381106,-1.79822 3.154148,-3.01913 4.751008,-5.3956 6.363968,-9.47124 0.436104,-1.10194 0.518242,-1.22292 1.915449,-2.81275 5.017687,-5.70939 7.421911,-9.24568 8.251919,-12.13889 0.369355,-1.28776 0.367652,-3.612745 -0.0036,-4.795139 -0.301141,-0.95904 -0.841938,-2.090803 -1.356084,-2.838079 -0.825764,-1.20021 -2.619898,-2.700396 -4.62436,-3.866718 -0.598047,-0.347979 -1.076697,-0.667805 -1.063737,-0.710605 0.01296,-0.04279 1.001381,-0.750525 2.19658,-1.572811 l 2.173063,-1.495021 0.787309,0.509075 c 1.003331,0.649055 2.195049,1.19636 2.984252,1.370194 1.056813,0.232792 2.500865,0.09475 3.930399,-0.375926 1.79476,-0.590919 2.067475,-0.600415 3.393103,-0.116505 1.895399,0.691896 2.559154,0.843651 3.431455,0.784054 1.874747,-0.128074 3.30718,-1.242312 4.580942,-3.563156 l 0.433454,-0.789843 1.015978,-0.18742 c 2.686765,-0.495137 4.351719,-0.111031 7.35823,1.697275 0.51563,0.31013 1.06049,0.563961 1.21064,0.56407 0.15014,1.1e-4 1.0932,-0.4897 2.09564,-1.088702 1.67613,-1.001562 1.88153,-1.095345 2.55911,-1.166131 l 0.73702,-0.07707 0.95555,1.272142 c 0.52557,0.699718 1.03783,1.297825 1.13828,1.328947 0.56086,0.173953 0.9199,0.08774 2.05764,-0.49424 l 1.17662,-0.60206 h 1.56232 c 1.65157,0 1.91537,-0.06334 2.14014,-0.515225 0.0759,-0.152519 0.14416,-1.017786 0.1686,-2.131815 0.0369,-1.680759 0.0714,-1.959032 0.32998,-2.686116 0.36137,-1.01608 0.73116,-1.580223 1.3123,-2.0012 0.55043,-0.398723 0.93779,-0.514144 2.29572,-0.683469 0.92397,-0.115213 1.08759,-0.16957 1.41976,-0.473977 l 0.3752,-0.344087 0.17947,-1.746843 0.17945,-1.746483 0.33106,-0.146896 c 0.18199,-0.0808 0.75127,-0.304821 1.26491,-0.497858 0.90805,-0.341259 0.97949,-0.395648 2.58119,-1.960676 2.05058,-2.003645 3.15078,-3.446024 4.08851,-5.359569 0.98386,-2.007652 1.47589,-3.664127 1.93282,-6.507247 0.12672,-0.788609 0.25355,-1.539401 0.28149,-1.668329 0.0403,-0.185644 0.20569,-0.273456 0.79636,-0.421153 0.46862,-0.117187 0.85868,-0.293797 1.04926,-0.475425 0.15222,-0.145069 0.24672,-0.205522 0.28439,-0.181993 z" /></g></svg>
