<?xml version="1.0" encoding="UTF-8" standalone="no"?>
<svg
   width="128"
   height="128"
   viewBox="0 0 70.866 70.866"
   enable-background="new 0 0 70.866 70.866"
   id="圖層_1"
   version="1.1"
   xml:space="preserve"
   sodipodi:docname="Map.svg"
   inkscape:version="1.2.2 (b0a8486541, 2022-12-01)"
   xmlns:inkscape="http://www.inkscape.org/namespaces/inkscape"
   xmlns:sodipodi="http://sodipodi.sourceforge.net/DTD/sodipodi-0.dtd"
   xmlns="http://www.w3.org/2000/svg"
   xmlns:svg="http://www.w3.org/2000/svg"><defs
   id="defs994" /><sodipodi:namedview
   id="namedview992"
   pagecolor="#ffffff"
   bordercolor="#000000"
   borderopacity="0.25"
   inkscape:showpageshadow="2"
   inkscape:pageopacity="0.0"
   inkscape:pagecheckerboard="0"
   inkscape:deskcolor="#d1d1d1"
   showgrid="false"
   inkscape:zoom="6.1328126"
   inkscape:cx="56.825477"
   inkscape:cy="69.870063"
   inkscape:window-width="1712"
   inkscape:window-height="931"
   inkscape:window-x="1920"
   inkscape:window-y="0"
   inkscape:window-maximized="1"
   inkscape:current-layer="g989" />

<circle
   style="fill:#f4e3d7;fill-opacity:0.501103;stroke:none;stroke-width:0.110728"
   id="path349"
   cx="35.432999"
   cy="35.432999"
   r="24.830061" /><g
   id="g989"
   style="stroke:#fba02a;stroke-opacity:1"
   transform="matrix(0.48259951,0,0,0.48259951,18.33281,18.333052)">

<polygon
   fill="#ffffff"
   points="7.2,62.933 63.667,62.933 53.527,43.703 17.339,43.703 "
   stroke="#040000"
   stroke-linecap="round"
   stroke-linejoin="round"
   stroke-miterlimit="10"
   stroke-width="3"
   id="polygon983"
   style="fill:none;stroke:#fba02a;stroke-opacity:1" />

<path
   d="m 16.541,26.826 c 0,10.435 18.893,26.447 18.893,26.447 0,0 18.893,-16.012 18.893,-26.447 C 54.327,16.392 45.869,7.933 35.434,7.933 25,7.933 16.541,16.392 16.541,26.826 Z"
   fill="#ffffff"
   stroke="#040000"
   stroke-linecap="round"
   stroke-linejoin="round"
   stroke-miterlimit="10"
   stroke-width="3"
   id="path985"
   style="fill:none;stroke:#fba02a;stroke-opacity:1" />

<circle
   cx="35.432999"
   cy="25.965"
   fill="#ffffff"
   r="10.426"
   stroke="#040000"
   stroke-linecap="round"
   stroke-linejoin="round"
   stroke-miterlimit="10"
   stroke-width="3"
   id="circle987"
   style="stroke:#fba02a;stroke-opacity:1;fill:none" />

<path
   d="m 16.541,26.826 c 0,10.435 18.893,26.447 18.893,26.447 0,0 18.893,-16.012 18.893,-26.447 C 54.327,16.392 45.869,7.933 35.434,7.933 25,7.933 16.541,16.392 16.541,26.826 Z"
   fill="#ffffff"
   stroke="#040000"
   stroke-linecap="round"
   stroke-linejoin="round"
   stroke-miterlimit="10"
   stroke-width="3"
   id="path5133"
   style="fill:none;stroke:#fba02a;stroke-opacity:1" /></g>

</svg>
