<?xml version="1.0" encoding="UTF-8" standalone="no"?>
<svg
   fill="#000000"
   width="128"
   height="128"
   viewBox="0 0 24 24"
   version="1.1"
   id="svg10"
   sodipodi:docname="trendingTilesvgAssetsvg.svg"
   inkscape:version="1.2.2 (b0a8486541, 2022-12-01)"
   xmlns:inkscape="http://www.inkscape.org/namespaces/inkscape"
   xmlns:sodipodi="http://sodipodi.sourceforge.net/DTD/sodipodi-0.dtd"
   xmlns="http://www.w3.org/2000/svg"
   xmlns:svg="http://www.w3.org/2000/svg">
  <defs
     id="defs14" />
  <sodipodi:namedview
     id="namedview12"
     pagecolor="#ffffff"
     bordercolor="#000000"
     borderopacity="0.25"
     inkscape:showpageshadow="2"
     inkscape:pageopacity="0.0"
     inkscape:pagecheckerboard="0"
     inkscape:deskcolor="#d1d1d1"
     showgrid="false"
     inkscape:zoom="4.3365533"
     inkscape:cx="-7.8403279"
     inkscape:cy="78.28798"
     inkscape:window-width="1712"
     inkscape:window-height="931"
     inkscape:window-x="1920"
     inkscape:window-y="0"
     inkscape:window-maximized="1"
     inkscape:current-layer="svg10" />
  <circle
     style="fill:#f4e3d7;stroke:none;stroke-width:0.0375;fill-opacity:0.5011034"
     id="path349"
     cx="12"
     cy="12"
     r="8.4091311" />
  <g
     data-name="Layer 2"
     id="g8"
     transform="matrix(0.63367003,0,0,0.63367003,4.3959597,4.3959597)"
     style="stroke-width:1.0001262;stroke-dasharray:none;fill:#fba02a;fill-opacity:1">
    <g
       data-name="trending-up"
       id="g6"
       style="stroke-width:1.0001262;stroke-dasharray:none;fill:#fba02a;fill-opacity:1">
      <rect
         width="24"
         height="24"
         transform="rotate(-90,12,12)"
         opacity="0"
         id="rect2"
         x="0"
         y="0"
         style="stroke-width:1.0001262;stroke-dasharray:none;fill:#fba02a;fill-opacity:1" />
      <path
         d="M 21,7 A 0.78,0.78 0 0 0 21,6.79 0.64,0.64 0 0 0 20.95,6.62 1.1,1.1 0 0 0 20.86,6.48 0.75,0.75 0 0 0 20.72,6.31 L 20.6,6.24 a 0.69,0.69 0 0 0 -0.19,-0.1 h -0.2 A 0.7,0.7 0 0 0 20,6 h -5 a 1,1 0 0 0 0,2 h 2.83 l -4,4.71 -4.32,-2.57 a 1,1 0 0 0 -1.28,0.22 l -5,6 A 1,1 0 0 0 3.36,17.77 1,1 0 0 0 4,18 1,1 0 0 0 4.77,17.64 l 4.45,-5.34 4.27,2.56 a 1,1 0 0 0 1.27,-0.21 L 19,9.7 V 12 a 1,1 0 0 0 2,0 z"
         id="path4"
         style="stroke-width:1.0001262;stroke-dasharray:none;fill:#fba02a;fill-opacity:1" />
    </g>
  </g>
</svg>
