<?xml version="1.0" encoding="UTF-8" standalone="no"?>
<svg
   fill="#000000"
   width="128"
   height="128"
   viewBox="0 0 512 512"
   data-name="Layer 1"
   id="Layer_1"
   version="1.1"
   sodipodi:docname="history.svg"
   inkscape:version="1.2.2 (b0a8486541, 2022-12-01)"
   xmlns:inkscape="http://www.inkscape.org/namespaces/inkscape"
   xmlns:sodipodi="http://sodipodi.sourceforge.net/DTD/sodipodi-0.dtd"
   xmlns="http://www.w3.org/2000/svg"
   xmlns:svg="http://www.w3.org/2000/svg">
  <defs
     id="defs7" />
  <sodipodi:namedview
     id="namedview5"
     pagecolor="#ffffff"
     bordercolor="#000000"
     borderopacity="0.25"
     inkscape:showpageshadow="2"
     inkscape:pageopacity="0.0"
     inkscape:pagecheckerboard="0"
     inkscape:deskcolor="#d1d1d1"
     showgrid="false"
     inkscape:zoom="6.1328125"
     inkscape:cx="46.634395"
     inkscape:cy="64.163057"
     inkscape:window-width="1712"
     inkscape:window-height="931"
     inkscape:window-x="1920"
     inkscape:window-y="0"
     inkscape:window-maximized="1"
     inkscape:current-layer="Layer_1" />
  <path
     d="M478,256A222,222,0,0,1,99,413,220.55,220.55,0,0,1,34,256H63.92c0,105.91,86.17,192.08,192.08,192.08S448.08,361.91,448.08,256,361.91,63.92,256,63.92A191.8,191.8,0,0,0,116.58,124H175v29.92H70V49H99.93v49.3A221.93,221.93,0,0,1,478,256ZM250,139V280H373V250H280V139Z"
     id="path2"
     style="fill:#fba02a;fill-opacity:1" />
</svg>
