<?xml version="1.0" encoding="UTF-8" standalone="no"?>
<svg
   fill="#000000"
   width="128"
   height="128"
   viewBox="0 0 32 32"
   version="1.1"
   id="svg6"
   sodipodi:docname="svg_324786.svg"
   inkscape:version="1.2.2 (b0a8486541, 2022-12-01)"
   xmlns:inkscape="http://www.inkscape.org/namespaces/inkscape"
   xmlns:sodipodi="http://sodipodi.sourceforge.net/DTD/sodipodi-0.dtd"
   xmlns="http://www.w3.org/2000/svg"
   xmlns:svg="http://www.w3.org/2000/svg">
  <defs
     id="defs10" />
  <sodipodi:namedview
     id="namedview8"
     pagecolor="#ffffff"
     bordercolor="#000000"
     borderopacity="0.25"
     inkscape:showpageshadow="2"
     inkscape:pageopacity="0.0"
     inkscape:pagecheckerboard="0"
     inkscape:deskcolor="#d1d1d1"
     showgrid="false"
     inkscape:zoom="6.1328125"
     inkscape:cx="43.780892"
     inkscape:cy="64.163057"
     inkscape:window-width="1712"
     inkscape:window-height="931"
     inkscape:window-x="1920"
     inkscape:window-y="0"
     inkscape:window-maximized="1"
     inkscape:current-layer="svg6" />
  <title
     id="title2" />
  <path
     d="M16.648,3.239a1,1,0,0,0-1.3,0l-11,9.375a1,1,0,0,0-.33.968l3.3,15.625A1,1,0,0,0,8.3,30H23.7a1,1,0,0,0,.979-.793l3.3-15.625a1,1,0,0,0-.33-.968ZM14,28V20h4v8Zm8.889,0H20V19a1,1,0,0,0-1-1H13a1,1,0,0,0-1,1v9H9.111L6.1,13.75,16,5.314l9.9,8.437ZM12,13a4,4,0,1,0,4-4A4,4,0,0,0,12,13Zm6,0a2,2,0,1,1-2-2A2,2,0,0,1,18,13Z"
     id="path4"
     style="fill:#fba02a;fill-opacity:1" />
</svg>
