<?xml version="1.0" encoding="UTF-8" standalone="no"?>
<svg
   fill="#000000"
   width="128"
   height="128"
   viewBox="0 0 64 64"
   version="1.1"
   id="svg9"
   sodipodi:docname="asianTile.svg"
   inkscape:version="1.2.2 (b0a8486541, 2022-12-01)"
   xmlns:inkscape="http://www.inkscape.org/namespaces/inkscape"
   xmlns:sodipodi="http://sodipodi.sourceforge.net/DTD/sodipodi-0.dtd"
   xmlns="http://www.w3.org/2000/svg"
   xmlns:svg="http://www.w3.org/2000/svg">
  <defs
     id="defs13" />
  <sodipodi:namedview
     id="namedview11"
     pagecolor="#ffffff"
     bordercolor="#000000"
     borderopacity="0.25"
     inkscape:showpageshadow="2"
     inkscape:pageopacity="0.0"
     inkscape:pagecheckerboard="0"
     inkscape:deskcolor="#d1d1d1"
     showgrid="false"
     inkscape:zoom="3.0664063"
     inkscape:cx="-1.4675159"
     inkscape:cy="87.235669"
     inkscape:window-width="1712"
     inkscape:window-height="931"
     inkscape:window-x="1920"
     inkscape:window-y="0"
     inkscape:window-maximized="1"
     inkscape:current-layer="svg9" />
  <title
     id="title2" />
  <g
     data-name="Layer 15"
     id="Layer_15"
     style="stroke:none;stroke-opacity:1;stroke-width:0.1;stroke-dasharray:none;fill:#fba02a;fill-opacity:1">
    <path
       d="M63,0H9A1,1,0,0,0,8,1V7A1,1,0,0,0,9,8h8.6l2.075,2-2.365,2.28a1,1,0,0,0,0,1.44L19.671,16l-2.365,2.28a1,1,0,0,0,0,1.44L19.671,22l-2.365,2.28a1,1,0,0,0,0,1.44L19.671,28l-.291.28a1,1,0,1,0,1.389,1.44l1.037-1a1,1,0,0,0,0-1.44L19.44,25l2.366-2.28a1,1,0,0,0,0-1.44L19.44,19l2.366-2.28a1,1,0,0,0,0-1.44L19.44,13l2.366-2.28a1,1,0,0,0,0-1.44L20.478,8h1.267l2.073,2-2.364,2.28a1,1,0,0,0,0,1.44L23.818,16l-2.364,2.28a1,1,0,0,0,0,1.44L23.818,22l-2.364,2.28a1,1,0,0,0,0,1.44L23.818,28l-.29.28a1,1,0,0,0,1.389,1.44l1.036-1a1,1,0,0,0,0-1.44L23.589,25l2.364-2.28a1,1,0,0,0,0-1.44L23.589,19l2.364-2.28a1,1,0,0,0,0-1.44L23.589,13l2.364-2.28a1,1,0,0,0,0-1.44L24.626,8h1.266l2.075,2L25.6,12.28a1,1,0,0,0,0,1.44L27.967,16,25.6,18.28a1,1,0,0,0,0,1.44L27.967,22,25.6,24.28a1,1,0,0,0,0,1.44L27.967,28l-.291.28a1,1,0,1,0,1.388,1.44l1.038-1a1,1,0,0,0,0-1.44L27.736,25,30.1,22.72a1,1,0,0,0,0-1.44L27.736,19,30.1,16.72a1,1,0,0,0,0-1.44L27.736,13,30.1,10.72a1,1,0,0,0,0-1.44L28.774,8h1.267l2.074,2L29.75,12.28a1,1,0,0,0,0,1.44L32.115,16,29.75,18.28a1,1,0,0,0,0,1.44L32.115,22,29.75,24.28a1,1,0,0,0,0,1.44L32.115,28l-.291.28a1,1,0,0,0-.025,1.414.99.99,0,0,0,.331.227,1.014,1.014,0,0,0,.133.028A.966.966,0,0,0,32.51,30l.009,0a1.043,1.043,0,0,0,.232-.044,1.122,1.122,0,0,0,.131-.025,1.008,1.008,0,0,0,.331-.211l1.037-1a1,1,0,0,0,0-1.44L31.885,25l2.365-2.28a1,1,0,0,0,0-1.44L31.885,19l2.365-2.28a1,1,0,0,0,0-1.44L31.885,13l2.365-2.28a1,1,0,0,0,0-1.44L32.922,8h1.267l2.075,2L33.9,12.28a1,1,0,0,0,0,1.44L36.264,16,33.9,18.28a1,1,0,0,0,0,1.44L36.264,22,33.9,24.28a1,1,0,0,0,0,1.44L36.264,28l-.291.28a1,1,0,0,0,.306,1.641,1.044,1.044,0,0,0,.126.027,1.013,1.013,0,0,0,.253.05l.009,0a1.006,1.006,0,0,0,.235-.045.945.945,0,0,0,.129-.024,1.014,1.014,0,0,0,.33-.211l1.037-1a1,1,0,0,0,0-1.44L36.033,25,38.4,22.72a1,1,0,0,0,0-1.44L36.033,19,38.4,16.72a1,1,0,0,0,0-1.44L36.033,13,38.4,10.72a1,1,0,0,0,0-1.44L37.07,8h1.267l2.074,2-2.364,2.28a1,1,0,0,0,0,1.44L40.411,16l-2.364,2.28a1,1,0,0,0,0,1.44L40.411,22l-2.364,2.28a1,1,0,0,0,0,1.44L40.411,28l-.291.28a1,1,0,0,0,1.389,1.44l1.037-1a1,1,0,0,0,0-1.44L40.182,25l2.364-2.28a1,1,0,0,0,0-1.44L40.182,19l2.364-2.28a1,1,0,0,0,0-1.44L40.182,13l2.364-2.28a1,1,0,0,0,0-1.44L41.218,8h1.267l2.075,2-2.366,2.28a1,1,0,0,0,0,1.44L44.56,16l-2.366,2.28a1,1,0,0,0,0,1.44L44.56,22l-2.366,2.28a1,1,0,0,0,0,1.44L44.56,28l-.254.245a1,1,0,1,0,1.388,1.439l1-.964a1,1,0,0,0,0-1.44L44.329,25l2.365-2.28a1,1,0,0,0,0-1.44L44.329,19l2.365-2.28a1,1,0,0,0,0-1.44L44.329,13l2.365-2.28a1,1,0,0,0,0-1.44L45.366,8H63a1,1,0,0,0,1-1V1A1,1,0,0,0,63,0ZM10,2H62V3H10ZM42.485,6H41.218l1.037-1h1.267ZM20.478,6l1.037-1h1.266L21.745,6Zm5.185-1h1.266L25.892,6H24.626Zm4.148,0h1.267L30.041,6H28.774Zm4.148,0h1.267L34.189,6H32.922Zm4.149,0h1.266L38.337,6H37.07ZM10,5h8.633L17.6,6H10ZM62,6H45.366L46.4,5H62Z"
       id="path4"
       style="stroke:none;stroke-opacity:1;stroke-width:0.1;stroke-dasharray:none;fill:#fba02a;fill-opacity:1" />
    <path
       d="M32,64A31.848,31.848,0,0,1,.026,33.032a1,1,0,0,1,1-1.032h61.95a1,1,0,0,1,1,1.032A31.848,31.848,0,0,1,32,64ZM2.075,34a29.991,29.991,0,0,0,59.85,0Z"
       id="path6"
       style="stroke:none;stroke-opacity:1;stroke-width:0.1;stroke-dasharray:none;fill:#fba02a;fill-opacity:1" />
  </g>
</svg>
