<?xml version="1.0" encoding="UTF-8" standalone="no"?>
<svg
   width="128"
   height="128"
   viewBox="0 0 24 24"
   fill="none"
   version="1.1"
   id="svg6"
   sodipodi:docname="Burger.svg"
   inkscape:version="1.2.2 (b0a8486541, 2022-12-01)"
   xmlns:inkscape="http://www.inkscape.org/namespaces/inkscape"
   xmlns:sodipodi="http://sodipodi.sourceforge.net/DTD/sodipodi-0.dtd"
   xmlns="http://www.w3.org/2000/svg"
   xmlns:svg="http://www.w3.org/2000/svg">
  <defs
     id="defs10" />
  <sodipodi:namedview
     id="namedview8"
     pagecolor="#ffffff"
     bordercolor="#000000"
     borderopacity="0.25"
     inkscape:showpageshadow="2"
     inkscape:pageopacity="0.0"
     inkscape:pagecheckerboard="0"
     inkscape:deskcolor="#d1d1d1"
     showgrid="false"
     inkscape:zoom="6.1328125"
     inkscape:cx="43.780892"
     inkscape:cy="64.163057"
     inkscape:window-width="1712"
     inkscape:window-height="931"
     inkscape:window-x="1920"
     inkscape:window-y="0"
     inkscape:window-maximized="1"
     inkscape:current-layer="svg6" />
  <path
     stroke="#000000"
     stroke-linecap="round"
     stroke-linejoin="round"
     stroke-width="2"
     d="m15 15 3.379-3.379a2.121 2.121 0 0 1 1.5-.621H20a2 2 0 0 1 2 2v0a2 2 0 0 1-2 2H4a2 2 0 0 1-2-2v0a2 2 0 0 1 2-2h4.515a6 6 0 0 1 4.242 1.757L15 15zM3 15h18v2a3 3 0 0 1-3 3H6a3 3 0 0 1-3-3v-2z"
     id="path2"
     style="stroke:#fba02a;stroke-opacity:1" />
  <path
     stroke="#000000"
     stroke-linecap="round"
     stroke-linejoin="round"
     stroke-width="2"
     d="M12 4c-4.623 0-8.432 1.756-8.942 6-.066.55.39 1 .942 1h16c.552 0 1.008-.45.942-1-.51-4.244-4.319-6-8.942-6zM7.001 8H7m8.001-1H15m-2.999 1H12"
     id="path4"
     style="stroke:#fba02a;stroke-opacity:1" />
</svg>
