<?xml version="1.0" encoding="UTF-8" standalone="no"?>
<svg
   version="1.1"
   id="Icons"
   viewBox="0 0 32 32"
   xml:space="preserve"
   height="128"
   width="128"
   sodipodi:docname="chickenTile.svg"
   inkscape:version="1.2.2 (b0a8486541, 2022-12-01)"
   xmlns:inkscape="http://www.inkscape.org/namespaces/inkscape"
   xmlns:sodipodi="http://sodipodi.sourceforge.net/DTD/sodipodi-0.dtd"
   xmlns="http://www.w3.org/2000/svg"
   xmlns:svg="http://www.w3.org/2000/svg"><defs
   id="defs25" /><sodipodi:namedview
   id="namedview23"
   pagecolor="#ffffff"
   bordercolor="#000000"
   borderopacity="0.25"
   inkscape:showpageshadow="2"
   inkscape:pageopacity="0.0"
   inkscape:pagecheckerboard="0"
   inkscape:deskcolor="#d1d1d1"
   showgrid="false"
   inkscape:zoom="3.0664063"
   inkscape:cx="5.3808917"
   inkscape:cy="101.74777"
   inkscape:window-width="1920"
   inkscape:window-height="1048"
   inkscape:window-x="0"
   inkscape:window-y="0"
   inkscape:window-maximized="1"
   inkscape:current-layer="Icons" />
<style
   type="text/css"
   id="style2">
	.st0{fill:none;stroke:#000000;stroke-width:2;stroke-linecap:round;stroke-linejoin:round;stroke-miterlimit:10;}
</style>
<path
   class="st0"
   d="m 25.886449,10.002224 h -1.84547 v 0 c -2.636385,0 -5.140951,1.450012 -6.525053,3.822758 v 0 c -0.329548,0.527277 -1.120463,0.527277 -1.384102,-0.06591 L 14.352264,9.7385855 C 13.956807,8.7499411 13.034072,8.0908449 11.979518,8.0908449 v 0 c -1.384102,0 -2.5704757,1.2522829 -2.5704757,2.7682041 v 4.745493 c 0,2.900024 1.5818307,5.536409 4.0204877,6.854601 l 0.06591,0.06591 c 2.043199,1.054554 4.481855,1.054554 6.459143,0 l 0.06591,-0.06591 c 1.84547,-0.988644 3.163662,-2.702294 3.756849,-4.745493 0.461367,-1.77956 1.120463,-3.49321 2.043198,-5.009131 l 0.06591,-0.06591 h -1.384102 z"
   id="path4"
   style="fill:none;fill-opacity:1;stroke:#fba02a;stroke-opacity:1;stroke-width:1.13484059;stroke-dasharray:none" />
<circle
   class="st0"
   cx="12.045427"
   cy="10.72723"
   r="0"
   id="circle6"
   style="fill:none;fill-opacity:1;stroke:#fba02a;stroke-opacity:1;stroke-width:1.13484059;stroke-dasharray:none" />
<polygon
   class="st0"
   points="1,10 6,13 6,7 "
   id="polygon8"
   style="fill:none;fill-opacity:1;stroke:#fba02a;stroke-opacity:1;stroke-width:1.13484049;stroke-dasharray:none"
   transform="matrix(0.65909626,0,0,0.65909626,5.4544648,5.4544598)" />
<path
   class="st0"
   d="m 8.0908498,13.561344 c 0,0.725006 -0.2636385,1.384102 -0.6590963,1.977289 v 0 c -0.527277,0.725006 0,1.77956 0.8568252,1.77956 v 0 c 0.6590962,0 1.1204636,-0.461368 1.1204636,-1.120464"
   id="path10"
   style="fill:none;fill-opacity:1;stroke:#fba02a;stroke-opacity:1;stroke-width:1.13484059;stroke-dasharray:none" />
<path
   class="st0"
   d="m 14.022716,8.0908449 h -1.977289 v 0 c 0,-1.1204637 0.856826,-1.9772888 1.977289,-1.9772888 h 1.977289 v 0 c 0,1.1204636 -0.856825,1.9772888 -1.977289,1.9772888 z"
   id="path12"
   style="fill:none;fill-opacity:1;stroke:#fba02a;stroke-opacity:1;stroke-width:1.13484059;stroke-dasharray:none" />
<line
   class="st0"
   x1="17.977293"
   y1="17.318193"
   x2="21.272776"
   y2="17.318193"
   id="line14"
   style="fill:none;fill-opacity:1;stroke:#fba02a;stroke-opacity:1;stroke-width:1.13484059;stroke-dasharray:none" />
<path
   class="st0"
   d="m 13.36362,16 v 0.329548 c 0,1.977289 1.647741,3.62503 3.625029,3.62503 v 0 c 1.647741,0 3.031843,-1.120464 3.49321,-2.636385"
   id="path16"
   style="fill:none;fill-opacity:1;stroke:#fba02a;stroke-opacity:1;stroke-width:1.13484059;stroke-dasharray:none" />
<line
   class="st0"
   x1="15.340909"
   y1="25.886444"
   x2="18.636391"
   y2="25.886444"
   id="line18"
   style="fill:none;fill-opacity:1;stroke:#fba02a;stroke-opacity:1;stroke-width:1.13484059;stroke-dasharray:none" />
<line
   class="st0"
   x1="17.318197"
   y1="25.886444"
   x2="17.318197"
   y2="23.250059"
   id="line20"
   style="fill:none;fill-opacity:1;stroke:#fba02a;stroke-opacity:1;stroke-width:1.13484059;stroke-dasharray:none" />
</svg>
