<?xml version="1.0" encoding="UTF-8" standalone="no"?>
<svg
   version="1.1"
   id="Icons"
   viewBox="0 0 32 32"
   xml:space="preserve"
   height="128"
   width="128"
   sodipodi:docname="coffeeTile.svg"
   inkscape:version="1.2.2 (b0a8486541, 2022-12-01)"
   xmlns:inkscape="http://www.inkscape.org/namespaces/inkscape"
   xmlns:sodipodi="http://sodipodi.sourceforge.net/DTD/sodipodi-0.dtd"
   xmlns="http://www.w3.org/2000/svg"
   xmlns:svg="http://www.w3.org/2000/svg"><defs
   id="defs19" /><sodipodi:namedview
   id="namedview17"
   pagecolor="#ffffff"
   bordercolor="#000000"
   borderopacity="0.25"
   inkscape:showpageshadow="2"
   inkscape:pageopacity="0.0"
   inkscape:pagecheckerboard="0"
   inkscape:deskcolor="#d1d1d1"
   showgrid="false"
   inkscape:zoom="1.0841383"
   inkscape:cx="-366.65064"
   inkscape:cy="98.695895"
   inkscape:window-width="1920"
   inkscape:window-height="1048"
   inkscape:window-x="0"
   inkscape:window-y="0"
   inkscape:window-maximized="1"
   inkscape:current-layer="Icons"
   showguides="true" />
<style
   type="text/css"
   id="style2">
	.st0{fill:none;stroke:#000000;stroke-width:2;stroke-linecap:round;stroke-linejoin:round;stroke-miterlimit:10;}
</style>






<path
   id="line305"
   style="stroke:#fba02a;stroke-opacity:1;fill:#223442;fill-opacity:1;stroke-width:2.5;stroke-dasharray:none"
   class="st0"
   d="m 10.028245,2.499884 c -1.1999991,1.7999979 -1.1999991,4.2000019 0,5.9999999 z m 3.999999,0 c -1.199999,1.7999979 -1.199999,4.2000019 0,5.9999999 z m 4,0 c -1.199999,1.7999979 -1.199999,4.2000019 0,5.9999999 z m -12.9999993,9 v 6.200197 c 0,4.799995 4.000005,8.799805 8.9999993,8.799805 4.999995,0 9,-3.99981 9,-8.799805 v 0.799805 c 0,1.699998 1.300002,3 3,3 1.699998,0 3,-1.300002 3,-3 v -3 c 0,-1.7 -1.400002,-3.000001 -3,-3.000001 -1.699998,0 -3,1.400001 -3,3.000001 V 11.499884 Z M 4.0282449,29.499886 H 24.028244 Z" /></svg>
