<?xml version="1.0" encoding="UTF-8" standalone="no"?>
<!-- Created with Inkscape (http://www.inkscape.org/) -->

<svg
   width="210mm"
   height="210mm"
   viewBox="0 0 210 210"
   version="1.1"
   id="svg5"
   inkscape:export-filename="Fastfoodicon.svg"
   inkscape:export-xdpi="96"
   inkscape:export-ydpi="96"
   inkscape:version="1.2.2 (b0a8486541, 2022-12-01)"
   sodipodi:docname="fastfoodTile.svg"
   xmlns:inkscape="http://www.inkscape.org/namespaces/inkscape"
   xmlns:sodipodi="http://sodipodi.sourceforge.net/DTD/sodipodi-0.dtd"
   xmlns="http://www.w3.org/2000/svg"
   xmlns:svg="http://www.w3.org/2000/svg">
  <sodipodi:namedview
     id="namedview7"
     pagecolor="#ffffff"
     bordercolor="#000000"
     borderopacity="0.25"
     inkscape:showpageshadow="2"
     inkscape:pageopacity="0.0"
     inkscape:pagecheckerboard="0"
     inkscape:deskcolor="#d1d1d1"
     inkscape:document-units="mm"
     showgrid="false"
     inkscape:zoom="0.6993196"
     inkscape:cx="-94.377449"
     inkscape:cy="363.21018"
     inkscape:window-width="1920"
     inkscape:window-height="1048"
     inkscape:window-x="0"
     inkscape:window-y="0"
     inkscape:window-maximized="1"
     inkscape:current-layer="g9501" />
  <defs
     id="defs2">
    <inkscape:path-effect
       effect="mirror_symmetry"
       start_point="140.03095,92.465004"
       end_point="140.03095,161.68626"
       center_point="140.03095,127.07563"
       id="path-effect267"
       is_visible="true"
       lpeversion="1.2"
       lpesatellites=""
       mode="free"
       discard_orig_path="false"
       fuse_paths="false"
       oposite_fuse="false"
       split_items="false"
       split_open="false"
       link_styles="false" />
    <inkscape:path-effect
       effect="bend_path"
       id="path-effect481"
       is_visible="true"
       lpeversion="1"
       bendpath="m 66.960918,147.31396 c 4.296642,-20.46413 33.162432,-21.40281 45.890182,0"
       prop_scale="1.8738438"
       scale_y_rel="false"
       vertical="false"
       hide_knot="false"
       bendpath-nodetypes="cc" />
    <inkscape:path-effect
       effect="bend_path"
       id="path-effect477"
       is_visible="true"
       lpeversion="1"
       bendpath="m 44.805607,223.87058 c 19.909627,20.10851 41.021148,30.63386 67.246943,0"
       prop_scale="1"
       scale_y_rel="false"
       vertical="false"
       hide_knot="false"
       bendpath-nodetypes="cc" />
  </defs>
  <g
     inkscape:label="Fries holder"
     inkscape:groupmode="layer"
     id="layer1"
     transform="translate(10.439374,4.8529007)">
    <g
       id="g9501"
       transform="matrix(1.7180755,0,0,1.7180755,-276.17943,28.186664)"
       style="stroke:#79110f;stroke-opacity:1">
      <g
         id="g9465"
         transform="matrix(1.0104906,0,0,0.87745826,148.65768,-95.682798)"
         style="stroke:#fba02a;stroke-opacity:1;fill:none;stroke-dasharray:none;fill-opacity:1;stroke-width:5.56315157">
        <path
           id="path9602"
           style="fill:none;stroke:#fba02a;stroke-width:5.56315157;stroke-dasharray:none;stroke-opacity:1;fill-opacity:1"
           d="M 45.636473 121.86787 L 45.636473 158.75239 A 30.615742 28.842583 0 0 0 55.373769 164.09301 L 55.373769 121.90147 L 50.641299 121.90147 L 50.641299 121.86787 L 45.636473 121.86787 z " />
        <path
           id="path9604"
           style="fill:none;stroke:#fba02a;stroke-width:5.56315157;stroke-dasharray:none;stroke-opacity:1;fill-opacity:1"
           d="M 55.415143 139.66878 L 55.415143 164.10706 A 30.615742 28.842583 0 0 0 65.152439 165.76101 L 65.152439 139.70237 L 60.41997 139.70237 L 60.41997 139.66878 L 55.415143 139.66878 z " />
        <path
           id="path9606"
           style="fill:none;stroke:#fba02a;stroke-width:5.56315157;stroke-dasharray:none;stroke-opacity:1;fill-opacity:1"
           d="M 64.81549 119.72683 L 64.81549 165.75347 A 30.615742 28.842583 0 0 0 65.618274 165.77163 A 30.615742 28.842583 0 0 0 74.552786 164.50127 L 74.552786 119.76042 L 69.820317 119.76042 L 69.820317 119.72683 L 64.81549 119.72683 z " />
        <path
           id="path9608"
           style="fill:none;stroke:#fba02a;stroke-width:5.56315157;stroke-dasharray:none;stroke-opacity:1;fill-opacity:1"
           d="M 74.622438 129.45785 L 74.622438 164.4807 A 30.615742 28.842583 0 0 0 84.360032 159.71151 L 84.360032 129.49145 L 79.627562 129.49145 L 79.627562 129.45785 L 74.622438 129.45785 z " />
        <path
           id="path9610"
           style="fill:none;stroke:#fba02a;stroke-width:5.56315157;stroke-dasharray:none;stroke-opacity:1;fill-opacity:1"
           d="M 84.458854 136.06027 L 84.458854 159.6385 A 30.615742 28.842583 0 0 0 94.196448 147.19774 L 94.196448 136.09386 L 89.463979 136.09386 L 89.463979 136.06027 L 84.458854 136.06027 z " />
        <path
           id="path9615"
           style="fill:none;stroke:#fba02a;stroke-width:5.56315157;stroke-dasharray:none;stroke-opacity:1;fill-opacity:1"
           d="M 35.757491 133.91099 L 35.757491 143.12544 A 30.615742 28.842583 0 0 0 43.771048 157.09776 L 45.494787 157.09776 L 45.494787 133.94459 L 40.762318 133.94459 L 40.762318 133.91099 L 35.757491 133.91099 z " />
      </g>
      <g
         id="g9499"
         transform="matrix(1.0201811,0,0,0.77243672,196.82455,-78.838165)"
         style="stroke:#fba02a;stroke-opacity:1;fill:none;stroke-dasharray:none;fill-opacity:1;stroke-width:5.90106193">
        <path
           id="path9497"
           style="fill:none;fill-opacity:1;stroke:#fba02a;stroke-width:5.23841942;stroke-dasharray:none;stroke-opacity:1"
           d="m 56.953186,76.365157 17.920643,51.913683 h 23.029644 23.030087 l 17.92065,-51.913683 -10.38319,0.05595 A 30.936919,25.308163 0 0 1 97.802648,98.571152 30.936919,25.308163 0 0 1 67.133815,76.419956 Z"
           transform="matrix(0.98021813,0,0,1.2946044,-78.087127,38.89246)" />
      </g>
    </g>
  </g>
</svg>
