<?xml version="1.0" encoding="UTF-8" standalone="no"?>
<!-- Created with Inkscape (http://www.inkscape.org/) -->

<svg
   width="210mm"
   height="210mm"
   viewBox="0 0 210 210"
   version="1.1"
   id="svg5"
   inkscape:export-filename="Fastfoodicon.svg"
   inkscape:export-xdpi="96"
   inkscape:export-ydpi="96"
   inkscape:version="1.2.2 (b0a8486541, 2022-12-01)"
   sodipodi:docname="filipinoTile.svg"
   xml:space="preserve"
   xmlns:inkscape="http://www.inkscape.org/namespaces/inkscape"
   xmlns:sodipodi="http://sodipodi.sourceforge.net/DTD/sodipodi-0.dtd"
   xmlns="http://www.w3.org/2000/svg"
   xmlns:svg="http://www.w3.org/2000/svg"><sodipodi:namedview
     id="namedview7"
     pagecolor="#ffffff"
     bordercolor="#000000"
     borderopacity="0.25"
     inkscape:showpageshadow="2"
     inkscape:pageopacity="0.0"
     inkscape:pagecheckerboard="0"
     inkscape:deskcolor="#d1d1d1"
     inkscape:document-units="mm"
     showgrid="false"
     inkscape:zoom="0.6993196"
     inkscape:cx="-94.377449"
     inkscape:cy="363.21018"
     inkscape:window-width="1920"
     inkscape:window-height="1048"
     inkscape:window-x="0"
     inkscape:window-y="0"
     inkscape:window-maximized="1"
     inkscape:current-layer="layer1" /><defs
     id="defs2"><inkscape:path-effect
       effect="bend_path"
       id="path-effect2766"
       is_visible="true"
       lpeversion="1"
       bendpath="m 72.076223,146.39269 c 6.779604,2.82886 13.962557,4.2998 22.859616,0"
       prop_scale="1"
       scale_y_rel="false"
       vertical="false"
       hide_knot="false"
       bendpath-nodetypes="cc" /><inkscape:path-effect
       effect="bend_path"
       id="path-effect2760"
       is_visible="true"
       lpeversion="1"
       bendpath="m 72.076223,146.39269 c 6.779604,2.82886 13.962557,4.2998 22.859616,0"
       prop_scale="1"
       scale_y_rel="false"
       vertical="false"
       hide_knot="false"
       bendpath-nodetypes="cc" /><inkscape:path-effect
       effect="bend_path"
       id="path-effect2754"
       is_visible="true"
       lpeversion="1"
       bendpath="m 72.076223,146.39269 c 6.779604,2.82886 13.962557,4.2998 22.859616,0"
       prop_scale="1"
       scale_y_rel="false"
       vertical="false"
       hide_knot="false"
       bendpath-nodetypes="cc" /><inkscape:path-effect
       effect="bend_path"
       id="path-effect1754"
       is_visible="true"
       lpeversion="1"
       bendpath="m 35.94017,129.56781 c 32.045948,16.01107 66.07013,26.88426 114.63204,0"
       prop_scale="1"
       scale_y_rel="false"
       vertical="false"
       hide_knot="false"
       bendpath-nodetypes="cc" /></defs><g
     inkscape:label="Fries holder"
     inkscape:groupmode="layer"
     id="layer1"
     transform="translate(10.439374,4.8529007)"><g
       id="g3605"
       transform="matrix(1.1771676,0,0,1.1771676,-16.534876,-32.769248)"
       style="fill:none;fill-opacity:1;stroke:#fba02a;stroke-width:7;stroke-dasharray:none;stroke-opacity:1"><path
         id="path364"
         style="fill:none;fill-opacity:1;stroke:#fba02a;stroke-width:7;stroke-dasharray:none;stroke-opacity:1"
         d="m 92.051132,60.992289 a 79.426376,53.838356 0 0 0 -20.450607,1.847506 c 12.993599,3.730209 22.433331,16.790918 22.120242,32.130367 -0.367264,17.993718 -15.547042,22.685368 -32.014352,22.346328 -16.467311,-0.33903 -27.986464,-5.58037 -27.6192,-23.574087 0.155992,-7.642679 2.709003,-14.620152 6.85503,-20.093886 A 79.426376,53.838356 0 0 0 12.624683,114.83031 79.426376,53.838356 0 0 0 92.051122,168.66912 79.426376,53.838356 0 0 0 171.47758,114.83058 79.426376,53.838356 0 0 0 92.051132,60.992289 Z"
         transform="matrix(0.99978812,-0.0205841,0.02040636,0.99979177,0,0)" /><path
         style="fill:none;fill-opacity:1;stroke:#fba02a;stroke-width:7;stroke-dasharray:none;stroke-opacity:1"
         id="rect1752"
         width="114.63204"
         height="23.893484"
         x="35.94017"
         y="117.62106"
         ry="11.946742"
         inkscape:path-effect="#path-effect1754"
         class="UnoptimicedTransforms"
         d="m 52.008282,123.94694 c 4.112657,1.81464 8.222507,3.45421 12.350561,4.83559 7.792479,2.60684 15.71804,4.40508 23.575356,4.95612 8.612218,0.64464 17.418861,-0.16561 25.972331,-2.19775 l 1e-5,0 c 6.91451,-1.62411 13.72851,-4.09385 20.41101,-7.14523 5.81424,-2.65492 12.96046,-0.56942 16.16274,5.22299 3.18609,5.76314 0.78261,13.34066 -6.25514,16.53717 -7.87273,3.57574 -16.14005,6.53893 -24.77097,8.6256 l 0,0 c -10.7971,2.58695 -22.033958,3.59364 -33.26297,2.78704 l -6e-6,0 c -10.206737,-0.77022 -20.096001,-2.9647 -29.466463,-6.14484 -4.930183,-1.67287 -9.703646,-3.56892 -14.341399,-5.60502 -6.849211,-3.00699 -9.483065,-10.40595 -6.537139,-16.29777 2.966563,-5.93309 10.273352,-8.1722 16.162079,-5.5739 z"
         sodipodi:type="rect"
         transform="rotate(-11.371091,51.498666,77.651456)" /><path
         style="fill:none;fill-opacity:1;stroke:#fba02a;stroke-width:9.29207;stroke-dasharray:none;stroke-opacity:1"
         d="m 71.980003,146.3544 c 3.467619,1.44435 7.060278,2.52207 10.732399,2.70303 0,0 10e-7,0 10e-7,0 3.480805,0.17167 6.536726,-0.52843 8.714181,-1.24129 2.166661,-0.70932 3.419748,-1.3706 3.419748,-1.3706 -3.773296,1.8061 -7.957189,2.83123 -12.134597,2.6255 -3.705273,-0.18256 -7.312636,-1.281 -10.731732,-2.71664 z"
         id="path2752"
         inkscape:path-effect="#path-effect2754"
         inkscape:original-d="m 72.076223,146.39451 c 10.339634,-0.0275 22.859616,0.007 22.859616,0.007 z"
         class="UnoptimicedTransforms"
         transform="matrix(-0.38018881,0.65752106,-0.63573585,-0.39321701,198.5809,139.62441)" /><path
         style="fill:none;fill-opacity:1;stroke:#fba02a;stroke-width:7.8533;stroke-dasharray:none;stroke-opacity:1"
         d="m 71.980003,146.3544 c 3.467619,1.44435 7.060278,2.52207 10.732399,2.70303 0,0 10e-7,0 10e-7,0 3.480805,0.17167 6.536726,-0.52843 8.714181,-1.24129 2.166661,-0.70932 3.419748,-1.3706 3.419748,-1.3706 -3.773296,1.8061 -7.957189,2.83123 -12.134597,2.6255 -3.705273,-0.18256 -7.312636,-1.281 -10.731732,-2.71664 z"
         id="path2756"
         inkscape:path-effect="#path-effect2760"
         inkscape:original-d="m 72.076223,146.39451 c 10.339634,-0.0275 22.859616,0.007 22.859616,0.007 z"
         class="UnoptimicedTransforms"
         transform="matrix(-0.28768005,0.85138484,-0.82915232,-0.30787317,246.89512,110.72345)" /><path
         style="fill:none;fill-opacity:1;stroke:#fba02a;stroke-width:9.29207;stroke-dasharray:none;stroke-opacity:1"
         d="m 71.980003,146.3544 c 3.467619,1.44435 7.060278,2.52207 10.732399,2.70303 0,0 10e-7,0 10e-7,0 3.480805,0.17167 6.536726,-0.52843 8.714181,-1.24129 2.166661,-0.70932 3.419748,-1.3706 3.419748,-1.3706 -3.773296,1.8061 -7.957189,2.83123 -12.134597,2.6255 -3.705273,-0.18256 -7.312636,-1.281 -10.731732,-2.71664 z"
         id="path2762"
         inkscape:path-effect="#path-effect2766"
         inkscape:original-d="m 72.076223,146.39451 c 10.339634,-0.0275 22.859616,0.007 22.859616,0.007 z"
         class="UnoptimicedTransforms"
         transform="matrix(-0.07722087,0.75558879,-0.74105928,-0.09803487,243.06409,79.967407)" /><path
         id="ellipse2768"
         style="fill:none;fill-opacity:1;stroke:#fba02a;stroke-width:7;stroke-dasharray:none;stroke-opacity:1"
         d="m 92.051158,76.438491 a 56.63921,38.392307 -180 0 0 -3.134251,0.07244 c 2.726629,4.567369 4.425837,9.927398 4.751959,15.684108 2.025992,-0.971722 5.511212,-1.09977 10.966974,-3.137493 2.74786,-1.026323 -0.0342,-7.74967 3.46963,-9.717087 2.21146,-1.241739 8.87467,2.165843 12.11691,2.236324 0.01,2.13e-4 0.0197,-0.0011 0.0295,-9.44e-4 a 56.63921,38.392307 -180 0 0 -28.200702,-5.13735 z m 1.209437,23.122874 c -2.6846,14.214245 -16.586937,18.063275 -31.55418,17.755125 -11.564757,-0.2381 -20.688497,-2.89439 -24.96913,-10.68715 a 56.63921,38.392307 -180 0 0 -1.325192,8.20132 56.63921,38.392307 -180 0 0 7.897673,19.50705 c 0.07423,-0.60867 0.198248,-1.21753 0.37574,-1.82199 1.868812,-6.36435 8.663013,-9.86114 14.918822,-8.3458 4.369023,1.05831 8.704521,1.94502 13.011962,2.57418 8.130969,1.1869 16.250029,1.55408 24.080695,0.70615 8.590205,-0.88938 17.113935,-3.24525 25.172215,-6.75879 6.51753,-2.82192 12.78624,-6.45791 18.82264,-10.64355 2.39339,-1.6596 5.23356,-2.39645 8.01145,-2.22404 a 56.63921,38.392307 -180 0 0 -0.58576,-1.79113 c -2.03773,2.0059 -6.01302,2.20127 -13.52725,3.122 -2.02972,0.24869 -10.68634,7.98842 -12.87877,7.94329 -10.86403,-0.22368 -10.68815,-5.72877 -15.48758,-12.10613 -1.6696,-2.21852 -8.567125,-3.46038 -11.963335,-5.430535 z m 39.445015,41.996985 c -0.74935,0.34789 -1.50175,0.69126 -2.26003,1.02546 -10.16817,4.45658 -21.04918,7.436 -32.24349,8.629 -8.348811,0.85927 -16.657052,0.73677 -24.772848,-0.14616 a 56.63921,38.392307 -180 0 0 18.621855,2.15627 56.63921,38.392307 -180 0 0 40.654513,-11.66457 z"
         transform="matrix(0.99978812,-0.0205841,0.02040636,0.99979177,0,0)" /><path
         id="path3556"
         style="fill:none;fill-opacity:1;stroke:#fba02a;stroke-width:7;stroke-dasharray:none;stroke-opacity:1"
         d="m 129.63011,74.495228 c -1.65143,0 -4.7148,4.5934 -7.76852,4.5899 -3.243,-0.0037 -9.97432,-3.273444 -12.15998,-1.986442 -3.46296,2.039133 -0.54426,8.70381 -3.2706,9.786483 -5.41303,2.149602 -8.894808,2.349344 -10.900625,3.362585 0.07055,0.914497 0.108521,1.839041 0.108521,2.773475 0,1.63946 -0.126455,3.169878 -0.366386,4.599719 3.435678,1.899844 10.3571,2.999462 12.07161,5.183142 4.92857,6.27726 4.86504,11.78481 15.73134,11.78481 2.1929,0 10.68974,-7.9163 12.71396,-8.20673 12.69751,-1.82182 15.28175,-1.35075 15.28175,-11.086145 0,-5.676104 -6.6678,-5.785944 -11.94656,-9.489343 -5.21849,-3.66112 -1.56602,-11.311454 -9.49451,-11.311454 z" /><ellipse
         style="fill:none;fill-opacity:1;stroke:#fba02a;stroke-width:7;stroke-dasharray:none;stroke-opacity:1"
         id="path3562"
         cx="125.03572"
         cy="92.592682"
         rx="11.739407"
         ry="6.1345744" /><path
         id="path3564"
         style="fill:none;fill-opacity:1;stroke:#fba02a;stroke-width:7;stroke-dasharray:none;stroke-opacity:1"
         d="m 95.638999,93.021342 c 0,17.997548 -15.08069,23.000458 -31.551446,23.000458 -16.470757,0 -28.09444,-5.00291 -28.09444,-23.000458 0,-17.997551 13.352186,-32.587448 29.822943,-32.587448 16.470757,0 29.822943,14.589897 29.822943,32.587448 z"
         sodipodi:nodetypes="sssss" /><ellipse
         style="fill:none;fill-opacity:1;stroke:#fba02a;stroke-width:7;stroke-dasharray:none;stroke-opacity:1"
         id="path3578"
         cx="-69.138794"
         cy="62.098293"
         rx="0.58340341"
         ry="2.5108149"
         transform="rotate(-86.093538)" /><ellipse
         style="fill:none;fill-opacity:1;stroke:#fba02a;stroke-width:7;stroke-dasharray:none;stroke-opacity:1"
         id="ellipse3580"
         cx="-106.43047"
         cy="41.275608"
         rx="0.58340341"
         ry="2.5108149"
         transform="rotate(-108.94641)" /><ellipse
         style="fill:none;fill-opacity:1;stroke:#fba02a;stroke-width:7;stroke-dasharray:none;stroke-opacity:1"
         id="ellipse3582"
         cx="-90.78756"
         cy="61.126808"
         rx="0.58340341"
         ry="2.5108149"
         transform="rotate(-88.247712)" /><ellipse
         style="fill:none;fill-opacity:1;stroke:#fba02a;stroke-width:7;stroke-dasharray:none;stroke-opacity:1"
         id="ellipse3584"
         cx="-81.651352"
         cy="67.323753"
         rx="0.58340341"
         ry="2.5108149"
         transform="rotate(-88.247712)" /><ellipse
         style="fill:none;fill-opacity:1;stroke:#fba02a;stroke-width:7;stroke-dasharray:none;stroke-opacity:1"
         id="ellipse3586"
         cx="-42.571232"
         cy="100.36957"
         rx="0.58340341"
         ry="2.5108149"
         transform="rotate(-66.715158)" /><ellipse
         style="fill:none;fill-opacity:1;stroke:#fba02a;stroke-width:7;stroke-dasharray:none;stroke-opacity:1"
         id="ellipse3588"
         cx="-98.238106"
         cy="15.89486"
         rx="0.58340341"
         ry="2.5108149"
         transform="rotate(-111.66207)" /></g></g></svg>
